<?xml version="1.0" encoding="UTF-8" standalone="no"?>
<!-- Created with Inkscape (http://www.inkscape.org/) -->

<svg
   xmlns:dc="http://purl.org/dc/elements/1.1/"
   xmlns:cc="http://creativecommons.org/ns#"
   xmlns:rdf="http://www.w3.org/1999/02/22-rdf-syntax-ns#"
   xmlns:svg="http://www.w3.org/2000/svg"
   xmlns="http://www.w3.org/2000/svg"
   xmlns:sodipodi="http://sodipodi.sourceforge.net/DTD/sodipodi-0.dtd"
   xmlns:inkscape="http://www.inkscape.org/namespaces/inkscape"
   width="2125.9841"
   height="4251.9683"
   id="svg2"
   version="1.1"
   inkscape:version="0.48.4 r9939"
   sodipodi:docname="panneau-tiroirs02.svg">
  <defs
     id="defs4" />
  <sodipodi:namedview
     id="base"
     pagecolor="#ffffff"
     bordercolor="#666666"
     borderopacity="1.0"
     inkscape:pageopacity="0.0"
     inkscape:pageshadow="2"
     inkscape:zoom="0.59010435"
     inkscape:cx="1161.4529"
     inkscape:cy="236.75654"
     inkscape:document-units="mm"
     inkscape:current-layer="layer1"
     showgrid="false"
     units="mm"
     showguides="true"
     inkscape:guide-bbox="true"
     inkscape:snap-bbox="true"
     inkscape:object-paths="true"
     inkscape:snap-intersection-paths="true"
     inkscape:object-nodes="true"
     inkscape:snap-smooth-nodes="false"
     inkscape:snap-center="true"
     inkscape:snap-object-midpoints="false"
     inkscape:window-width="1920"
     inkscape:window-height="1056"
     inkscape:window-x="1920"
     inkscape:window-y="24"
     inkscape:window-maximized="1"
     inkscape:snap-global="false"
     inkscape:snap-page="true" />
  <metadata
     id="metadata7">
    <rdf:RDF>
      <cc:Work
         rdf:about="">
        <dc:format>image/svg+xml</dc:format>
        <dc:type
           rdf:resource="http://purl.org/dc/dcmitype/StillImage" />
        <dc:title />
      </cc:Work>
    </rdf:RDF>
  </metadata>
  <g
     inkscape:label="Calque 1"
     inkscape:groupmode="layer"
     id="layer1"
     transform="translate(0,3199.6062)">
    <path
       inkscape:connector-curvature="0"
       id="path6772"
       d="m 993.83898,988.6171 66.68752,0 0,-9.6562 66.6562,0 0,9.6562 66.6875,0 0,-9.6562 66.6875,0 0,9.6562 66.6563,0 0,-9.6562 66.6875,0 0,9.6562 66.6562,0 0,-9.6562 0,-38.37496 -9.625,0 0,-48 9.625,0 0,-48 -9.625,0 0,-47.9688 9.625,0 0,-38.375 0,-9.5937 -66.6562,0 0,9.6562 -66.6875,0 0,-9.6562 -66.6563,0 0,9.6562 -66.6875,0 0,-9.6562 -66.6875,0 0,9.6562 -66.6562,0 0,-9.6562 -66.68752,0 0,9.5937 0,38.375 9.62502,0 0,47.9688 -9.62502,0 0,48 9.62502,0 0,48 -9.62502,0 0,38.37496 0,9.6562 z"
       style="color:#000000;fill:#ffffff;fill-opacity:1;fill-rule:nonzero;stroke:#000000;stroke-width:0.99999994;stroke-linecap:butt;stroke-linejoin:miter;stroke-miterlimit:4;stroke-opacity:1;stroke-dasharray:none;stroke-dashoffset:0;marker:none;visibility:visible;display:inline;overflow:visible;enable-background:accumulate" />
    <path
       sodipodi:nodetypes="ccccccccccccccccccccccccccccc"
       inkscape:connector-curvature="0"
       id="path6774"
       d="m 513.16666,956.61881 66.6562,0 0,9.62505 66.6875,0 0,-9.62505 66.6875,0 0,9.62505 66.6563,0 0,-9.62505 66.68754,0 0,9.62505 66.6562,0 0,-9.62505 66.62504,0 0,-44.99999 -9.625,0 0,-54.6875 9.625,0 0,-54.6563 -9.625,0 0,-54.6875 -447.46878,0 0,54.6875 -9.625,0 0,54.6563 9.625,0 0,54.6875 -9.625,0 z"
       style="color:#000000;fill:#ffffff;fill-opacity:1;fill-rule:nonzero;stroke:#000000;stroke-width:1;stroke-linecap:butt;stroke-linejoin:miter;stroke-miterlimit:4;stroke-opacity:1;stroke-dasharray:none;stroke-dashoffset:0;marker:none;visibility:visible;display:inline;overflow:visible;enable-background:accumulate" />
    <path
       style="color:#000000;fill:#ffffff;fill-opacity:1;fill-rule:nonzero;stroke:#000000;stroke-width:1;stroke-linecap:butt;stroke-linejoin:miter;stroke-miterlimit:4;stroke-opacity:1;stroke-dasharray:none;stroke-dashoffset:0;marker:none;visibility:visible;display:inline;overflow:visible;enable-background:accumulate"
       d="m 1935.3716,766.0004 -66.6563,0 0,-9.625 -66.6875,0 0,9.625 -66.6875,0 0,-9.625 -66.6562,0 0,9.625 -66.6875,0 0,-9.625 -66.6563,0 0,9.625 -66.625,0 0,45 9.625,0 0,54.6875 -9.625,0 0,54.6562 9.625,0 0,54.68753 447.4688,0 0,-54.68753 9.625,0 0,-54.6562 -9.625,0 0,-54.6875 9.625,0 z"
       id="path6776"
       inkscape:connector-curvature="0"
       sodipodi:nodetypes="ccccccccccccccccccccccccccccc" />
    <path
       style="color:#000000;fill:#ffffff;fill-opacity:1;fill-rule:nonzero;stroke:#000000;stroke-width:0.99999994;stroke-linecap:butt;stroke-linejoin:miter;stroke-miterlimit:4;stroke-opacity:1;stroke-dasharray:none;stroke-dashoffset:0;marker:none;visibility:visible;display:inline;overflow:visible;enable-background:accumulate"
       d="m 35.298609,987.64068 66.687491,0 0,-9.6562 66.6562,0 0,9.6562 66.6875,0 0,-9.6562 66.6875,0 0,9.6562 66.6563,0 0,-9.6562 66.6875,0 0,9.6562 66.6562,0 0,-9.6562 0,-38.37496 -9.625,0 0,-48 9.625,0 0,-48 -9.625,0 0,-47.9688 9.625,0 0,-38.375 0,-9.5937 -66.6562,0 0,9.6562 -66.6875,0 0,-9.6562 -66.6563,0 0,9.6562 -66.6875,0 0,-9.6562 -66.6875,0 0,9.6562 -66.6562,0 0,-9.6562 -66.687491,0 0,9.5937 0,38.375 9.625,0 0,47.9688 -9.625,0 0,48 9.625,0 0,48 -9.625,0 0,38.37496 0,9.6562 z"
       id="path6781"
       inkscape:connector-curvature="0" />
    <g
       id="g4152"
       transform="translate(-3.9056968,-25.387029)">
      <rect
         transform="matrix(0,-1,1,0,0,0)"
         style="color:#000000;fill:#ffffff;fill-opacity:1;fill-rule:nonzero;stroke:#000000;stroke-width:1;stroke-linecap:butt;stroke-linejoin:miter;stroke-miterlimit:4;stroke-opacity:1;stroke-dasharray:none;stroke-dashoffset:0;marker:none;visibility:visible;display:inline;overflow:visible;enable-background:accumulate"
         id="rect3426"
         width="239.94489"
         height="147.81889"
         x="-1012.2009"
         y="1947.2887" />
      <rect
         transform="matrix(0,-1,1,0,0,0)"
         style="color:#000000;fill:#ffffff;fill-opacity:1;fill-rule:nonzero;stroke:#ff0000;stroke-width:1;stroke-linecap:butt;stroke-linejoin:miter;stroke-miterlimit:4;stroke-opacity:1;stroke-dasharray:none;stroke-dashoffset:0;marker:none;visibility:visible;display:inline;overflow:visible;enable-background:accumulate"
         id="rect3428"
         width="213.37009"
         height="36.204723"
         x="-998.91345"
         y="2003.0958" />
    </g>
    <g
       id="g4203"
       transform="translate(0,1.1151403)">
      <path
         inkscape:connector-curvature="0"
         id="path4156"
         d="m 957.74872,-2674.2001 0,-66.6875 -9.65625,0 0,-66.6563 9.65625,0 0,-66.6875 -9.65625,0 0,-66.6875 9.65625,0 0,-66.6562 -9.65625,0 0,-66.6875 9.65625,0 0,-66.6563 -9.65625,0 -38.375,0 0,9.625 -48,0 0,-9.625 -48,0 0,9.625 -47.96875,0 0,-9.625 -38.375,0 -9.59375,0 0,66.6563 9.65625,0 0,66.6875 -9.65625,0 0,66.6562 9.65625,0 0,66.6875 -9.65625,0 0,66.6875 9.65625,0 0,66.6563 -9.65625,0 0,66.6875 9.59375,0 38.375,0 0,-9.625 47.96875,0 0,9.625 48,0 0,-9.625 48,0 0,9.625 38.375,0 9.65625,0 z"
         style="color:#000000;fill:#ffffff;fill-opacity:1;fill-rule:nonzero;stroke:#000000;stroke-width:0.99999994;stroke-linecap:butt;stroke-linejoin:miter;stroke-miterlimit:4;stroke-opacity:1;stroke-dasharray:none;stroke-dashoffset:0;marker:none;visibility:visible;display:inline;overflow:visible;enable-background:accumulate" />
      <path
         sodipodi:nodetypes="ccccccccccccccccccccccccccccc"
         inkscape:connector-curvature="0"
         id="path4158"
         d="m 1173.3514,-2676.0311 0,-66.6562 9.625,0 0,-66.6875 -9.625,0 0,-66.6875 9.625,0 0,-66.6563 -9.625,0 0,-66.6875 9.625,0 0,-66.6563 -9.625,0 0,-66.625 -45,0 0,9.625 -54.6875,0 0,-9.625 -54.6563,0 0,9.625 -54.68746,0 0,447.4688 54.68746,0 0,9.625 54.6563,0 0,-9.625 54.6875,0 0,9.625 z"
         style="color:#000000;fill:#ffffff;fill-opacity:1;fill-rule:nonzero;stroke:#000000;stroke-width:1;stroke-linecap:butt;stroke-linejoin:miter;stroke-miterlimit:4;stroke-opacity:1;stroke-dasharray:none;stroke-dashoffset:0;marker:none;visibility:visible;display:inline;overflow:visible;enable-background:accumulate" />
      <path
         style="color:#000000;fill:#ffffff;fill-opacity:1;fill-rule:nonzero;stroke:#000000;stroke-width:1;stroke-linecap:butt;stroke-linejoin:miter;stroke-miterlimit:4;stroke-opacity:1;stroke-dasharray:none;stroke-dashoffset:0;marker:none;visibility:visible;display:inline;overflow:visible;enable-background:accumulate"
         d="m 1199.1728,-3142.3715 0,66.6563 -9.625,0 0,66.6875 9.625,0 0,66.6875 -9.625,0 0,66.6562 9.625,0 0,66.6875 -9.625,0 0,66.6563 9.625,0 0,66.625 45,0 0,-9.625 54.6876,0 0,9.625 54.6562,0 0,-9.625 54.6875,0 0,-447.4688 -54.6875,0 0,-9.625 -54.6562,0 0,9.625 -54.6876,0 0,-9.625 z"
         id="path4160"
         inkscape:connector-curvature="0"
         sodipodi:nodetypes="ccccccccccccccccccccccccccccc" />
      <path
         style="color:#000000;fill:#ffffff;fill-opacity:1;fill-rule:nonzero;stroke:#000000;stroke-width:0.99999994;stroke-linecap:butt;stroke-linejoin:miter;stroke-miterlimit:4;stroke-opacity:1;stroke-dasharray:none;stroke-dashoffset:0;marker:none;visibility:visible;display:inline;overflow:visible;enable-background:accumulate"
         d="m 260.75337,-2674.2001 0,-66.6875 -9.65625,0 0,-66.6563 9.65625,0 0,-66.6875 -9.65625,0 0,-66.6875 9.65625,0 0,-66.6562 -9.65625,0 0,-66.6875 9.65625,0 0,-66.6563 -9.65625,0 -38.375,0 0,9.625 -48,0 0,-9.625 -48,0 0,9.625 -47.968758,0 0,-9.625 -38.375,0 -9.59375,0 0,66.6563 9.65625,0 0,66.6875 -9.65625,0 0,66.6562 9.65625,0 0,66.6875 -9.65625,0 0,66.6875 9.65625,0 0,66.6563 -9.65625,0 0,66.6875 9.59375,0 38.375,0 0,-9.625 47.968758,0 0,9.625 48,0 0,-9.625 48,0 0,9.625 38.375,0 9.65625,0 z"
         id="path4162"
         inkscape:connector-curvature="0" />
      <path
         style="color:#000000;fill:#ffffff;fill-opacity:1;fill-rule:nonzero;stroke:#000000;stroke-width:1;stroke-linecap:butt;stroke-linejoin:miter;stroke-miterlimit:4;stroke-opacity:1;stroke-dasharray:none;stroke-dashoffset:0;marker:none;visibility:visible;display:inline;overflow:visible;enable-background:accumulate"
         d="m 476.35599,-2676.0311 0,-66.6562 9.625,0 0,-66.6875 -9.625,0 0,-66.6875 9.625,0 0,-66.6563 -9.625,0 0,-66.6875 9.625,0 0,-66.6563 -9.625,0 0,-66.625 -45,0 0,9.625 -54.6875,0 0,-9.625 -54.65625,0 0,9.625 -54.6875,0 0,447.4688 54.6875,0 0,9.625 54.65625,0 0,-9.625 54.6875,0 0,9.625 z"
         id="path4164"
         inkscape:connector-curvature="0"
         sodipodi:nodetypes="ccccccccccccccccccccccccccccc" />
      <path
         sodipodi:nodetypes="ccccccccccccccccccccccccccccc"
         inkscape:connector-curvature="0"
         id="path4166"
         d="m 502.17737,-3142.3715 0,66.6563 -9.625,0 0,66.6875 9.625,0 0,66.6875 -9.625,0 0,66.6562 9.625,0 0,66.6875 -9.625,0 0,66.6563 9.625,0 0,66.625 45,0 0,-9.625 54.68751,0 0,9.625 54.6562,0 0,-9.625 54.6875,0 0,-447.4688 -54.6875,0 0,-9.625 -54.6562,0 0,9.625 -54.68751,0 0,-9.625 z"
         style="color:#000000;fill:#ffffff;fill-opacity:1;fill-rule:nonzero;stroke:#000000;stroke-width:1;stroke-linecap:butt;stroke-linejoin:miter;stroke-miterlimit:4;stroke-opacity:1;stroke-dasharray:none;stroke-dashoffset:0;marker:none;visibility:visible;display:inline;overflow:visible;enable-background:accumulate" />
      <path
         inkscape:connector-curvature="0"
         id="path4168"
         d="m 1654.7441,-2674.2001 0,-66.6875 -9.6562,0 0,-66.6563 9.6562,0 0,-66.6875 -9.6562,0 0,-66.6875 9.6562,0 0,-66.6562 -9.6562,0 0,-66.6875 9.6562,0 0,-66.6563 -9.6562,0 -38.375,0 0,9.625 -48,0 0,-9.625 -48,0 0,9.625 -47.9688,0 0,-9.625 -38.375,0 -9.5937,0 0,66.6563 9.6562,0 0,66.6875 -9.6562,0 0,66.6562 9.6562,0 0,66.6875 -9.6562,0 0,66.6875 9.6562,0 0,66.6563 -9.6562,0 0,66.6875 9.5937,0 38.375,0 0,-9.625 47.9688,0 0,9.625 48,0 0,-9.625 48,0 0,9.625 38.375,0 9.6562,0 z"
         style="color:#000000;fill:#ffffff;fill-opacity:1;fill-rule:nonzero;stroke:#000000;stroke-width:0.99999994;stroke-linecap:butt;stroke-linejoin:miter;stroke-miterlimit:4;stroke-opacity:1;stroke-dasharray:none;stroke-dashoffset:0;marker:none;visibility:visible;display:inline;overflow:visible;enable-background:accumulate" />
      <path
         sodipodi:nodetypes="ccccccccccccccccccccccccccccc"
         inkscape:connector-curvature="0"
         id="path4170"
         d="m 1870.3469,-2676.0311 0,-66.6562 9.625,0 0,-66.6875 -9.625,0 0,-66.6875 9.625,0 0,-66.6563 -9.625,0 0,-66.6875 9.625,0 0,-66.6563 -9.625,0 0,-66.625 -45,0 0,9.625 -54.6875,0 0,-9.625 -54.6563,0 0,9.625 -54.6875,0 0,447.4688 54.6875,0 0,9.625 54.6563,0 0,-9.625 54.6875,0 0,9.625 z"
         style="color:#000000;fill:#ffffff;fill-opacity:1;fill-rule:nonzero;stroke:#000000;stroke-width:1;stroke-linecap:butt;stroke-linejoin:miter;stroke-miterlimit:4;stroke-opacity:1;stroke-dasharray:none;stroke-dashoffset:0;marker:none;visibility:visible;display:inline;overflow:visible;enable-background:accumulate" />
      <path
         style="color:#000000;fill:#ffffff;fill-opacity:1;fill-rule:nonzero;stroke:#000000;stroke-width:1;stroke-linecap:butt;stroke-linejoin:miter;stroke-miterlimit:4;stroke-opacity:1;stroke-dasharray:none;stroke-dashoffset:0;marker:none;visibility:visible;display:inline;overflow:visible;enable-background:accumulate"
         d="m 1896.1683,-3142.3715 0,66.6563 -9.625,0 0,66.6875 9.625,0 0,66.6875 -9.625,0 0,66.6562 9.625,0 0,66.6875 -9.625,0 0,66.6563 9.625,0 0,66.625 45,0 0,-9.625 54.6875,0 0,9.625 54.6562,0 0,-9.625 54.6875,0 0,-447.4688 -54.6875,0 0,-9.625 -54.6562,0 0,9.625 -54.6875,0 0,-9.625 z"
         id="path4172"
         inkscape:connector-curvature="0"
         sodipodi:nodetypes="ccccccccccccccccccccccccccccc" />
    </g>
    <g
       id="g4192"
       transform="translate(0,-3.6323072e-6)">
      <path
         style="color:#000000;fill:#ffffff;fill-opacity:1;fill-rule:nonzero;stroke:#000000;stroke-width:0.99999994;stroke-linecap:butt;stroke-linejoin:miter;stroke-miterlimit:4;stroke-opacity:1;stroke-dasharray:none;stroke-dashoffset:0;marker:none;visibility:visible;display:inline;overflow:visible;enable-background:accumulate"
         d="m 957.74873,737.9213 0,-66.6875 -9.65625,0 0,-66.6563 9.65625,0 0,-66.6875 -9.65625,0 0,-66.6875 9.65625,0 0,-66.6562 -9.65625,0 0,-66.6875 9.65625,0 0,-66.6563 -9.65625,0 -38.375,0 0,9.625 -48,0 0,-9.625 -48,0 0,9.625 -47.96875,0 0,-9.625 -38.375,0 -9.59375,0 0,66.6563 9.65625,0 0,66.6875 -9.65625,0 0,66.6562 9.65625,0 0,66.6875 -9.65625,0 0,66.6875 9.65625,0 0,66.6563 -9.65625,0 0,66.6875 9.59375,0 38.375,0 0,-9.625 47.96875,0 0,9.625 48,0 0,-9.625 48,0 0,9.625 38.375,0 9.65625,0 z"
         id="path4174"
         inkscape:connector-curvature="0" />
      <path
         style="color:#000000;fill:#ffffff;fill-opacity:1;fill-rule:nonzero;stroke:#000000;stroke-width:1;stroke-linecap:butt;stroke-linejoin:miter;stroke-miterlimit:4;stroke-opacity:1;stroke-dasharray:none;stroke-dashoffset:0;marker:none;visibility:visible;display:inline;overflow:visible;enable-background:accumulate"
         d="m 1173.3514,736.0903 0,-66.6562 9.625,0 0,-66.6875 -9.625,0 0,-66.6875 9.625,0 0,-66.6563 -9.625,0 0,-66.6875 9.625,0 0,-66.6563 -9.625,0 0,-66.625 -45,0 0,9.625 -54.6875,0 0,-9.625 -54.6563,0 0,9.625 -54.68745,0 0,447.4688 54.68745,0 0,9.625 54.6563,0 0,-9.625 54.6875,0 0,9.625 z"
         id="path4176"
         inkscape:connector-curvature="0"
         sodipodi:nodetypes="ccccccccccccccccccccccccccccc" />
      <path
         sodipodi:nodetypes="ccccccccccccccccccccccccccccc"
         inkscape:connector-curvature="0"
         id="path4178"
         d="m 1199.1728,269.7499 0,66.6563 -9.625,0 0,66.6875 9.625,0 0,66.6875 -9.625,0 0,66.6562 9.625,0 0,66.6875 -9.625,0 0,66.6563 9.625,0 0,66.625 45,0 0,-9.625 54.6876,0 0,9.625 54.6562,0 0,-9.625 54.6875,0 0,-447.4688 -54.6875,0 0,-9.625 -54.6562,0 0,9.625 -54.6876,0 0,-9.625 z"
         style="color:#000000;fill:#ffffff;fill-opacity:1;fill-rule:nonzero;stroke:#000000;stroke-width:1;stroke-linecap:butt;stroke-linejoin:miter;stroke-miterlimit:4;stroke-opacity:1;stroke-dasharray:none;stroke-dashoffset:0;marker:none;visibility:visible;display:inline;overflow:visible;enable-background:accumulate" />
      <path
         inkscape:connector-curvature="0"
         id="path4180"
         d="m 260.75338,737.9213 0,-66.6875 -9.65625,0 0,-66.6563 9.65625,0 0,-66.6875 -9.65625,0 0,-66.6875 9.65625,0 0,-66.6562 -9.65625,0 0,-66.6875 9.65625,0 0,-66.6563 -9.65625,0 -38.375,0 0,9.625 -48,0 0,-9.625 -48,0 0,9.625 -47.968759,0 0,-9.625 -38.375,0 -9.59375,0 0,66.6563 9.65625,0 0,66.6875 -9.65625,0 0,66.6562 9.65625,0 0,66.6875 -9.65625,0 0,66.6875 9.65625,0 0,66.6563 -9.65625,0 0,66.6875 9.59375,0 38.375,0 0,-9.625 47.968759,0 0,9.625 48,0 0,-9.625 48,0 0,9.625 38.375,0 9.65625,0 z"
         style="color:#000000;fill:#ffffff;fill-opacity:1;fill-rule:nonzero;stroke:#000000;stroke-width:0.99999994;stroke-linecap:butt;stroke-linejoin:miter;stroke-miterlimit:4;stroke-opacity:1;stroke-dasharray:none;stroke-dashoffset:0;marker:none;visibility:visible;display:inline;overflow:visible;enable-background:accumulate" />
      <path
         sodipodi:nodetypes="ccccccccccccccccccccccccccccc"
         inkscape:connector-curvature="0"
         id="path4182"
         d="m 476.356,736.0903 0,-66.6562 9.625,0 0,-66.6875 -9.625,0 0,-66.6875 9.625,0 0,-66.6563 -9.625,0 0,-66.6875 9.625,0 0,-66.6563 -9.625,0 0,-66.625 -45,0 0,9.625 -54.6875,0 0,-9.625 -54.65625,0 0,9.625 -54.6875,0 0,447.4688 54.6875,0 0,9.625 54.65625,0 0,-9.625 54.6875,0 0,9.625 z"
         style="color:#000000;fill:#ffffff;fill-opacity:1;fill-rule:nonzero;stroke:#000000;stroke-width:1;stroke-linecap:butt;stroke-linejoin:miter;stroke-miterlimit:4;stroke-opacity:1;stroke-dasharray:none;stroke-dashoffset:0;marker:none;visibility:visible;display:inline;overflow:visible;enable-background:accumulate" />
      <path
         style="color:#000000;fill:#ffffff;fill-opacity:1;fill-rule:nonzero;stroke:#000000;stroke-width:1;stroke-linecap:butt;stroke-linejoin:miter;stroke-miterlimit:4;stroke-opacity:1;stroke-dasharray:none;stroke-dashoffset:0;marker:none;visibility:visible;display:inline;overflow:visible;enable-background:accumulate"
         d="m 502.17738,269.7499 0,66.6563 -9.625,0 0,66.6875 9.625,0 0,66.6875 -9.625,0 0,66.6562 9.625,0 0,66.6875 -9.625,0 0,66.6563 9.625,0 0,66.625 45,0 0,-9.625 54.68751,0 0,9.625 54.6562,0 0,-9.625 54.6875,0 0,-447.4688 -54.6875,0 0,-9.625 -54.6562,0 0,9.625 -54.68751,0 0,-9.625 z"
         id="path4184"
         inkscape:connector-curvature="0"
         sodipodi:nodetypes="ccccccccccccccccccccccccccccc" />
      <path
         style="color:#000000;fill:#ffffff;fill-opacity:1;fill-rule:nonzero;stroke:#000000;stroke-width:0.99999994;stroke-linecap:butt;stroke-linejoin:miter;stroke-miterlimit:4;stroke-opacity:1;stroke-dasharray:none;stroke-dashoffset:0;marker:none;visibility:visible;display:inline;overflow:visible;enable-background:accumulate"
         d="m 1654.7441,737.9213 0,-66.6875 -9.6562,0 0,-66.6563 9.6562,0 0,-66.6875 -9.6562,0 0,-66.6875 9.6562,0 0,-66.6562 -9.6562,0 0,-66.6875 9.6562,0 0,-66.6563 -9.6562,0 -38.375,0 0,9.625 -48,0 0,-9.625 -48,0 0,9.625 -47.9688,0 0,-9.625 -38.375,0 -9.5937,0 0,66.6563 9.6562,0 0,66.6875 -9.6562,0 0,66.6562 9.6562,0 0,66.6875 -9.6562,0 0,66.6875 9.6562,0 0,66.6563 -9.6562,0 0,66.6875 9.5937,0 38.375,0 0,-9.625 47.9688,0 0,9.625 48,0 0,-9.625 48,0 0,9.625 38.375,0 9.6562,0 z"
         id="path4186"
         inkscape:connector-curvature="0" />
      <path
         style="color:#000000;fill:#ffffff;fill-opacity:1;fill-rule:nonzero;stroke:#000000;stroke-width:1;stroke-linecap:butt;stroke-linejoin:miter;stroke-miterlimit:4;stroke-opacity:1;stroke-dasharray:none;stroke-dashoffset:0;marker:none;visibility:visible;display:inline;overflow:visible;enable-background:accumulate"
         d="m 1870.3469,736.0903 0,-66.6562 9.625,0 0,-66.6875 -9.625,0 0,-66.6875 9.625,0 0,-66.6563 -9.625,0 0,-66.6875 9.625,0 0,-66.6563 -9.625,0 0,-66.625 -45,0 0,9.625 -54.6875,0 0,-9.625 -54.6563,0 0,9.625 -54.6875,0 0,447.4688 54.6875,0 0,9.625 54.6563,0 0,-9.625 54.6875,0 0,9.625 z"
         id="path4188"
         inkscape:connector-curvature="0"
         sodipodi:nodetypes="ccccccccccccccccccccccccccccc" />
      <path
         sodipodi:nodetypes="ccccccccccccccccccccccccccccc"
         inkscape:connector-curvature="0"
         id="path4190"
         d="m 1896.1683,269.7499 0,66.6563 -9.625,0 0,66.6875 9.625,0 0,66.6875 -9.625,0 0,66.6562 9.625,0 0,66.6875 -9.625,0 0,66.6563 9.625,0 0,66.625 45,0 0,-9.625 54.6875,0 0,9.625 54.6562,0 0,-9.625 54.6875,0 0,-447.4688 -54.6875,0 0,-9.625 -54.6562,0 0,9.625 -54.6875,0 0,-9.625 z"
         style="color:#000000;fill:#ffffff;fill-opacity:1;fill-rule:nonzero;stroke:#000000;stroke-width:1;stroke-linecap:butt;stroke-linejoin:miter;stroke-miterlimit:4;stroke-opacity:1;stroke-dasharray:none;stroke-dashoffset:0;marker:none;visibility:visible;display:inline;overflow:visible;enable-background:accumulate" />
    </g>
    <g
       id="g4214"
       transform="translate(0,488.40176)">
      <path
         style="color:#000000;fill:#ffffff;fill-opacity:1;fill-rule:nonzero;stroke:#000000;stroke-width:0.99999994;stroke-linecap:butt;stroke-linejoin:miter;stroke-miterlimit:4;stroke-opacity:1;stroke-dasharray:none;stroke-dashoffset:0;marker:none;visibility:visible;display:inline;overflow:visible;enable-background:accumulate"
         d="m 957.74872,-2674.2001 0,-66.6875 -9.65625,0 0,-66.6563 9.65625,0 0,-66.6875 -9.65625,0 0,-66.6875 9.65625,0 0,-66.6562 -9.65625,0 0,-66.6875 9.65625,0 0,-66.6563 -9.65625,0 -38.375,0 0,9.625 -48,0 0,-9.625 -48,0 0,9.625 -47.96875,0 0,-9.625 -38.375,0 -9.59375,0 0,66.6563 9.65625,0 0,66.6875 -9.65625,0 0,66.6562 9.65625,0 0,66.6875 -9.65625,0 0,66.6875 9.65625,0 0,66.6563 -9.65625,0 0,66.6875 9.59375,0 38.375,0 0,-9.625 47.96875,0 0,9.625 48,0 0,-9.625 48,0 0,9.625 38.375,0 9.65625,0 z"
         id="path4216"
         inkscape:connector-curvature="0" />
      <path
         style="color:#000000;fill:#ffffff;fill-opacity:1;fill-rule:nonzero;stroke:#000000;stroke-width:1;stroke-linecap:butt;stroke-linejoin:miter;stroke-miterlimit:4;stroke-opacity:1;stroke-dasharray:none;stroke-dashoffset:0;marker:none;visibility:visible;display:inline;overflow:visible;enable-background:accumulate"
         d="m 1173.3514,-2676.0311 0,-66.6562 9.625,0 0,-66.6875 -9.625,0 0,-66.6875 9.625,0 0,-66.6563 -9.625,0 0,-66.6875 9.625,0 0,-66.6563 -9.625,0 0,-66.625 -45,0 0,9.625 -54.6875,0 0,-9.625 -54.6563,0 0,9.625 -54.68746,0 0,447.4688 54.68746,0 0,9.625 54.6563,0 0,-9.625 54.6875,0 0,9.625 z"
         id="path4218"
         inkscape:connector-curvature="0"
         sodipodi:nodetypes="ccccccccccccccccccccccccccccc" />
      <path
         sodipodi:nodetypes="ccccccccccccccccccccccccccccc"
         inkscape:connector-curvature="0"
         id="path4220"
         d="m 1199.1728,-3142.3715 0,66.6563 -9.625,0 0,66.6875 9.625,0 0,66.6875 -9.625,0 0,66.6562 9.625,0 0,66.6875 -9.625,0 0,66.6563 9.625,0 0,66.625 45,0 0,-9.625 54.6876,0 0,9.625 54.6562,0 0,-9.625 54.6875,0 0,-447.4688 -54.6875,0 0,-9.625 -54.6562,0 0,9.625 -54.6876,0 0,-9.625 z"
         style="color:#000000;fill:#ffffff;fill-opacity:1;fill-rule:nonzero;stroke:#000000;stroke-width:1;stroke-linecap:butt;stroke-linejoin:miter;stroke-miterlimit:4;stroke-opacity:1;stroke-dasharray:none;stroke-dashoffset:0;marker:none;visibility:visible;display:inline;overflow:visible;enable-background:accumulate" />
      <path
         inkscape:connector-curvature="0"
         id="path4222"
         d="m 260.75337,-2674.2001 0,-66.6875 -9.65625,0 0,-66.6563 9.65625,0 0,-66.6875 -9.65625,0 0,-66.6875 9.65625,0 0,-66.6562 -9.65625,0 0,-66.6875 9.65625,0 0,-66.6563 -9.65625,0 -38.375,0 0,9.625 -48,0 0,-9.625 -48,0 0,9.625 -47.968758,0 0,-9.625 -38.375,0 -9.59375,0 0,66.6563 9.65625,0 0,66.6875 -9.65625,0 0,66.6562 9.65625,0 0,66.6875 -9.65625,0 0,66.6875 9.65625,0 0,66.6563 -9.65625,0 0,66.6875 9.59375,0 38.375,0 0,-9.625 47.968758,0 0,9.625 48,0 0,-9.625 48,0 0,9.625 38.375,0 9.65625,0 z"
         style="color:#000000;fill:#ffffff;fill-opacity:1;fill-rule:nonzero;stroke:#000000;stroke-width:0.99999994;stroke-linecap:butt;stroke-linejoin:miter;stroke-miterlimit:4;stroke-opacity:1;stroke-dasharray:none;stroke-dashoffset:0;marker:none;visibility:visible;display:inline;overflow:visible;enable-background:accumulate" />
      <path
         sodipodi:nodetypes="ccccccccccccccccccccccccccccc"
         inkscape:connector-curvature="0"
         id="path4224"
         d="m 476.35599,-2676.0311 0,-66.6562 9.625,0 0,-66.6875 -9.625,0 0,-66.6875 9.625,0 0,-66.6563 -9.625,0 0,-66.6875 9.625,0 0,-66.6563 -9.625,0 0,-66.625 -45,0 0,9.625 -54.6875,0 0,-9.625 -54.65625,0 0,9.625 -54.6875,0 0,447.4688 54.6875,0 0,9.625 54.65625,0 0,-9.625 54.6875,0 0,9.625 z"
         style="color:#000000;fill:#ffffff;fill-opacity:1;fill-rule:nonzero;stroke:#000000;stroke-width:1;stroke-linecap:butt;stroke-linejoin:miter;stroke-miterlimit:4;stroke-opacity:1;stroke-dasharray:none;stroke-dashoffset:0;marker:none;visibility:visible;display:inline;overflow:visible;enable-background:accumulate" />
      <path
         style="color:#000000;fill:#ffffff;fill-opacity:1;fill-rule:nonzero;stroke:#000000;stroke-width:1;stroke-linecap:butt;stroke-linejoin:miter;stroke-miterlimit:4;stroke-opacity:1;stroke-dasharray:none;stroke-dashoffset:0;marker:none;visibility:visible;display:inline;overflow:visible;enable-background:accumulate"
         d="m 502.17737,-3142.3715 0,66.6563 -9.625,0 0,66.6875 9.625,0 0,66.6875 -9.625,0 0,66.6562 9.625,0 0,66.6875 -9.625,0 0,66.6563 9.625,0 0,66.625 45,0 0,-9.625 54.68751,0 0,9.625 54.6562,0 0,-9.625 54.6875,0 0,-447.4688 -54.6875,0 0,-9.625 -54.6562,0 0,9.625 -54.68751,0 0,-9.625 z"
         id="path4226"
         inkscape:connector-curvature="0"
         sodipodi:nodetypes="ccccccccccccccccccccccccccccc" />
      <path
         style="color:#000000;fill:#ffffff;fill-opacity:1;fill-rule:nonzero;stroke:#000000;stroke-width:0.99999994;stroke-linecap:butt;stroke-linejoin:miter;stroke-miterlimit:4;stroke-opacity:1;stroke-dasharray:none;stroke-dashoffset:0;marker:none;visibility:visible;display:inline;overflow:visible;enable-background:accumulate"
         d="m 1654.7441,-2674.2001 0,-66.6875 -9.6562,0 0,-66.6563 9.6562,0 0,-66.6875 -9.6562,0 0,-66.6875 9.6562,0 0,-66.6562 -9.6562,0 0,-66.6875 9.6562,0 0,-66.6563 -9.6562,0 -38.375,0 0,9.625 -48,0 0,-9.625 -48,0 0,9.625 -47.9688,0 0,-9.625 -38.375,0 -9.5937,0 0,66.6563 9.6562,0 0,66.6875 -9.6562,0 0,66.6562 9.6562,0 0,66.6875 -9.6562,0 0,66.6875 9.6562,0 0,66.6563 -9.6562,0 0,66.6875 9.5937,0 38.375,0 0,-9.625 47.9688,0 0,9.625 48,0 0,-9.625 48,0 0,9.625 38.375,0 9.6562,0 z"
         id="path4228"
         inkscape:connector-curvature="0" />
      <path
         style="color:#000000;fill:#ffffff;fill-opacity:1;fill-rule:nonzero;stroke:#000000;stroke-width:1;stroke-linecap:butt;stroke-linejoin:miter;stroke-miterlimit:4;stroke-opacity:1;stroke-dasharray:none;stroke-dashoffset:0;marker:none;visibility:visible;display:inline;overflow:visible;enable-background:accumulate"
         d="m 1870.3469,-2676.0311 0,-66.6562 9.625,0 0,-66.6875 -9.625,0 0,-66.6875 9.625,0 0,-66.6563 -9.625,0 0,-66.6875 9.625,0 0,-66.6563 -9.625,0 0,-66.625 -45,0 0,9.625 -54.6875,0 0,-9.625 -54.6563,0 0,9.625 -54.6875,0 0,447.4688 54.6875,0 0,9.625 54.6563,0 0,-9.625 54.6875,0 0,9.625 z"
         id="path4230"
         inkscape:connector-curvature="0"
         sodipodi:nodetypes="ccccccccccccccccccccccccccccc" />
      <path
         sodipodi:nodetypes="ccccccccccccccccccccccccccccc"
         inkscape:connector-curvature="0"
         id="path4232"
         d="m 1896.1683,-3142.3715 0,66.6563 -9.625,0 0,66.6875 9.625,0 0,66.6875 -9.625,0 0,66.6562 9.625,0 0,66.6875 -9.625,0 0,66.6563 9.625,0 0,66.625 45,0 0,-9.625 54.6875,0 0,9.625 54.6562,0 0,-9.625 54.6875,0 0,-447.4688 -54.6875,0 0,-9.625 -54.6562,0 0,9.625 -54.6875,0 0,-9.625 z"
         style="color:#000000;fill:#ffffff;fill-opacity:1;fill-rule:nonzero;stroke:#000000;stroke-width:1;stroke-linecap:butt;stroke-linejoin:miter;stroke-miterlimit:4;stroke-opacity:1;stroke-dasharray:none;stroke-dashoffset:0;marker:none;visibility:visible;display:inline;overflow:visible;enable-background:accumulate" />
    </g>
    <g
       id="g4234"
       transform="translate(0,975.68838)">
      <path
         inkscape:connector-curvature="0"
         id="path4236"
         d="m 957.74872,-2674.2001 0,-66.6875 -9.65625,0 0,-66.6563 9.65625,0 0,-66.6875 -9.65625,0 0,-66.6875 9.65625,0 0,-66.6562 -9.65625,0 0,-66.6875 9.65625,0 0,-66.6563 -9.65625,0 -38.375,0 0,9.625 -48,0 0,-9.625 -48,0 0,9.625 -47.96875,0 0,-9.625 -38.375,0 -9.59375,0 0,66.6563 9.65625,0 0,66.6875 -9.65625,0 0,66.6562 9.65625,0 0,66.6875 -9.65625,0 0,66.6875 9.65625,0 0,66.6563 -9.65625,0 0,66.6875 9.59375,0 38.375,0 0,-9.625 47.96875,0 0,9.625 48,0 0,-9.625 48,0 0,9.625 38.375,0 9.65625,0 z"
         style="color:#000000;fill:#ffffff;fill-opacity:1;fill-rule:nonzero;stroke:#000000;stroke-width:0.99999994;stroke-linecap:butt;stroke-linejoin:miter;stroke-miterlimit:4;stroke-opacity:1;stroke-dasharray:none;stroke-dashoffset:0;marker:none;visibility:visible;display:inline;overflow:visible;enable-background:accumulate" />
      <path
         sodipodi:nodetypes="ccccccccccccccccccccccccccccc"
         inkscape:connector-curvature="0"
         id="path4238"
         d="m 1173.3514,-2676.0311 0,-66.6562 9.625,0 0,-66.6875 -9.625,0 0,-66.6875 9.625,0 0,-66.6563 -9.625,0 0,-66.6875 9.625,0 0,-66.6563 -9.625,0 0,-66.625 -45,0 0,9.625 -54.6875,0 0,-9.625 -54.6563,0 0,9.625 -54.68746,0 0,447.4688 54.68746,0 0,9.625 54.6563,0 0,-9.625 54.6875,0 0,9.625 z"
         style="color:#000000;fill:#ffffff;fill-opacity:1;fill-rule:nonzero;stroke:#000000;stroke-width:1;stroke-linecap:butt;stroke-linejoin:miter;stroke-miterlimit:4;stroke-opacity:1;stroke-dasharray:none;stroke-dashoffset:0;marker:none;visibility:visible;display:inline;overflow:visible;enable-background:accumulate" />
      <path
         style="color:#000000;fill:#ffffff;fill-opacity:1;fill-rule:nonzero;stroke:#000000;stroke-width:1;stroke-linecap:butt;stroke-linejoin:miter;stroke-miterlimit:4;stroke-opacity:1;stroke-dasharray:none;stroke-dashoffset:0;marker:none;visibility:visible;display:inline;overflow:visible;enable-background:accumulate"
         d="m 1199.1728,-3142.3715 0,66.6563 -9.625,0 0,66.6875 9.625,0 0,66.6875 -9.625,0 0,66.6562 9.625,0 0,66.6875 -9.625,0 0,66.6563 9.625,0 0,66.625 45,0 0,-9.625 54.6876,0 0,9.625 54.6562,0 0,-9.625 54.6875,0 0,-447.4688 -54.6875,0 0,-9.625 -54.6562,0 0,9.625 -54.6876,0 0,-9.625 z"
         id="path4240"
         inkscape:connector-curvature="0"
         sodipodi:nodetypes="ccccccccccccccccccccccccccccc" />
      <path
         style="color:#000000;fill:#ffffff;fill-opacity:1;fill-rule:nonzero;stroke:#000000;stroke-width:0.99999994;stroke-linecap:butt;stroke-linejoin:miter;stroke-miterlimit:4;stroke-opacity:1;stroke-dasharray:none;stroke-dashoffset:0;marker:none;visibility:visible;display:inline;overflow:visible;enable-background:accumulate"
         d="m 260.75337,-2674.2001 0,-66.6875 -9.65625,0 0,-66.6563 9.65625,0 0,-66.6875 -9.65625,0 0,-66.6875 9.65625,0 0,-66.6562 -9.65625,0 0,-66.6875 9.65625,0 0,-66.6563 -9.65625,0 -38.375,0 0,9.625 -48,0 0,-9.625 -48,0 0,9.625 -47.968758,0 0,-9.625 -38.375,0 -9.59375,0 0,66.6563 9.65625,0 0,66.6875 -9.65625,0 0,66.6562 9.65625,0 0,66.6875 -9.65625,0 0,66.6875 9.65625,0 0,66.6563 -9.65625,0 0,66.6875 9.59375,0 38.375,0 0,-9.625 47.968758,0 0,9.625 48,0 0,-9.625 48,0 0,9.625 38.375,0 9.65625,0 z"
         id="path4242"
         inkscape:connector-curvature="0" />
      <path
         style="color:#000000;fill:#ffffff;fill-opacity:1;fill-rule:nonzero;stroke:#000000;stroke-width:1;stroke-linecap:butt;stroke-linejoin:miter;stroke-miterlimit:4;stroke-opacity:1;stroke-dasharray:none;stroke-dashoffset:0;marker:none;visibility:visible;display:inline;overflow:visible;enable-background:accumulate"
         d="m 476.35599,-2676.0311 0,-66.6562 9.625,0 0,-66.6875 -9.625,0 0,-66.6875 9.625,0 0,-66.6563 -9.625,0 0,-66.6875 9.625,0 0,-66.6563 -9.625,0 0,-66.625 -45,0 0,9.625 -54.6875,0 0,-9.625 -54.65625,0 0,9.625 -54.6875,0 0,447.4688 54.6875,0 0,9.625 54.65625,0 0,-9.625 54.6875,0 0,9.625 z"
         id="path4244"
         inkscape:connector-curvature="0"
         sodipodi:nodetypes="ccccccccccccccccccccccccccccc" />
      <path
         sodipodi:nodetypes="ccccccccccccccccccccccccccccc"
         inkscape:connector-curvature="0"
         id="path4246"
         d="m 502.17737,-3142.3715 0,66.6563 -9.625,0 0,66.6875 9.625,0 0,66.6875 -9.625,0 0,66.6562 9.625,0 0,66.6875 -9.625,0 0,66.6563 9.625,0 0,66.625 45,0 0,-9.625 54.68751,0 0,9.625 54.6562,0 0,-9.625 54.6875,0 0,-447.4688 -54.6875,0 0,-9.625 -54.6562,0 0,9.625 -54.68751,0 0,-9.625 z"
         style="color:#000000;fill:#ffffff;fill-opacity:1;fill-rule:nonzero;stroke:#000000;stroke-width:1;stroke-linecap:butt;stroke-linejoin:miter;stroke-miterlimit:4;stroke-opacity:1;stroke-dasharray:none;stroke-dashoffset:0;marker:none;visibility:visible;display:inline;overflow:visible;enable-background:accumulate" />
      <path
         inkscape:connector-curvature="0"
         id="path4248"
         d="m 1654.7441,-2674.2001 0,-66.6875 -9.6562,0 0,-66.6563 9.6562,0 0,-66.6875 -9.6562,0 0,-66.6875 9.6562,0 0,-66.6562 -9.6562,0 0,-66.6875 9.6562,0 0,-66.6563 -9.6562,0 -38.375,0 0,9.625 -48,0 0,-9.625 -48,0 0,9.625 -47.9688,0 0,-9.625 -38.375,0 -9.5937,0 0,66.6563 9.6562,0 0,66.6875 -9.6562,0 0,66.6562 9.6562,0 0,66.6875 -9.6562,0 0,66.6875 9.6562,0 0,66.6563 -9.6562,0 0,66.6875 9.5937,0 38.375,0 0,-9.625 47.9688,0 0,9.625 48,0 0,-9.625 48,0 0,9.625 38.375,0 9.6562,0 z"
         style="color:#000000;fill:#ffffff;fill-opacity:1;fill-rule:nonzero;stroke:#000000;stroke-width:0.99999994;stroke-linecap:butt;stroke-linejoin:miter;stroke-miterlimit:4;stroke-opacity:1;stroke-dasharray:none;stroke-dashoffset:0;marker:none;visibility:visible;display:inline;overflow:visible;enable-background:accumulate" />
      <path
         sodipodi:nodetypes="ccccccccccccccccccccccccccccc"
         inkscape:connector-curvature="0"
         id="path4250"
         d="m 1870.3469,-2676.0311 0,-66.6562 9.625,0 0,-66.6875 -9.625,0 0,-66.6875 9.625,0 0,-66.6563 -9.625,0 0,-66.6875 9.625,0 0,-66.6563 -9.625,0 0,-66.625 -45,0 0,9.625 -54.6875,0 0,-9.625 -54.6563,0 0,9.625 -54.6875,0 0,447.4688 54.6875,0 0,9.625 54.6563,0 0,-9.625 54.6875,0 0,9.625 z"
         style="color:#000000;fill:#ffffff;fill-opacity:1;fill-rule:nonzero;stroke:#000000;stroke-width:1;stroke-linecap:butt;stroke-linejoin:miter;stroke-miterlimit:4;stroke-opacity:1;stroke-dasharray:none;stroke-dashoffset:0;marker:none;visibility:visible;display:inline;overflow:visible;enable-background:accumulate" />
      <path
         style="color:#000000;fill:#ffffff;fill-opacity:1;fill-rule:nonzero;stroke:#000000;stroke-width:1;stroke-linecap:butt;stroke-linejoin:miter;stroke-miterlimit:4;stroke-opacity:1;stroke-dasharray:none;stroke-dashoffset:0;marker:none;visibility:visible;display:inline;overflow:visible;enable-background:accumulate"
         d="m 1896.1683,-3142.3715 0,66.6563 -9.625,0 0,66.6875 9.625,0 0,66.6875 -9.625,0 0,66.6562 9.625,0 0,66.6875 -9.625,0 0,66.6563 9.625,0 0,66.625 45,0 0,-9.625 54.6875,0 0,9.625 54.6562,0 0,-9.625 54.6875,0 0,-447.4688 -54.6875,0 0,-9.625 -54.6562,0 0,9.625 -54.6875,0 0,-9.625 z"
         id="path4252"
         inkscape:connector-curvature="0"
         sodipodi:nodetypes="ccccccccccccccccccccccccccccc" />
    </g>
    <g
       id="g4254"
       transform="translate(0,1950.2616)">
      <path
         style="color:#000000;fill:#ffffff;fill-opacity:1;fill-rule:nonzero;stroke:#000000;stroke-width:0.99999994;stroke-linecap:butt;stroke-linejoin:miter;stroke-miterlimit:4;stroke-opacity:1;stroke-dasharray:none;stroke-dashoffset:0;marker:none;visibility:visible;display:inline;overflow:visible;enable-background:accumulate"
         d="m 957.74872,-2674.2001 0,-66.6875 -9.65625,0 0,-66.6563 9.65625,0 0,-66.6875 -9.65625,0 0,-66.6875 9.65625,0 0,-66.6562 -9.65625,0 0,-66.6875 9.65625,0 0,-66.6563 -9.65625,0 -38.375,0 0,9.625 -48,0 0,-9.625 -48,0 0,9.625 -47.96875,0 0,-9.625 -38.375,0 -9.59375,0 0,66.6563 9.65625,0 0,66.6875 -9.65625,0 0,66.6562 9.65625,0 0,66.6875 -9.65625,0 0,66.6875 9.65625,0 0,66.6563 -9.65625,0 0,66.6875 9.59375,0 38.375,0 0,-9.625 47.96875,0 0,9.625 48,0 0,-9.625 48,0 0,9.625 38.375,0 9.65625,0 z"
         id="path4256"
         inkscape:connector-curvature="0" />
      <path
         style="color:#000000;fill:#ffffff;fill-opacity:1;fill-rule:nonzero;stroke:#000000;stroke-width:1;stroke-linecap:butt;stroke-linejoin:miter;stroke-miterlimit:4;stroke-opacity:1;stroke-dasharray:none;stroke-dashoffset:0;marker:none;visibility:visible;display:inline;overflow:visible;enable-background:accumulate"
         d="m 1173.3514,-2676.0311 0,-66.6562 9.625,0 0,-66.6875 -9.625,0 0,-66.6875 9.625,0 0,-66.6563 -9.625,0 0,-66.6875 9.625,0 0,-66.6563 -9.625,0 0,-66.625 -45,0 0,9.625 -54.6875,0 0,-9.625 -54.6563,0 0,9.625 -54.68746,0 0,447.4688 54.68746,0 0,9.625 54.6563,0 0,-9.625 54.6875,0 0,9.625 z"
         id="path4258"
         inkscape:connector-curvature="0"
         sodipodi:nodetypes="ccccccccccccccccccccccccccccc" />
      <path
         sodipodi:nodetypes="ccccccccccccccccccccccccccccc"
         inkscape:connector-curvature="0"
         id="path4260"
         d="m 1199.1728,-3142.3715 0,66.6563 -9.625,0 0,66.6875 9.625,0 0,66.6875 -9.625,0 0,66.6562 9.625,0 0,66.6875 -9.625,0 0,66.6563 9.625,0 0,66.625 45,0 0,-9.625 54.6876,0 0,9.625 54.6562,0 0,-9.625 54.6875,0 0,-447.4688 -54.6875,0 0,-9.625 -54.6562,0 0,9.625 -54.6876,0 0,-9.625 z"
         style="color:#000000;fill:#ffffff;fill-opacity:1;fill-rule:nonzero;stroke:#000000;stroke-width:1;stroke-linecap:butt;stroke-linejoin:miter;stroke-miterlimit:4;stroke-opacity:1;stroke-dasharray:none;stroke-dashoffset:0;marker:none;visibility:visible;display:inline;overflow:visible;enable-background:accumulate" />
      <path
         inkscape:connector-curvature="0"
         id="path4262"
         d="m 260.75337,-2674.2001 0,-66.6875 -9.65625,0 0,-66.6563 9.65625,0 0,-66.6875 -9.65625,0 0,-66.6875 9.65625,0 0,-66.6562 -9.65625,0 0,-66.6875 9.65625,0 0,-66.6563 -9.65625,0 -38.375,0 0,9.625 -48,0 0,-9.625 -48,0 0,9.625 -47.968758,0 0,-9.625 -38.375,0 -9.59375,0 0,66.6563 9.65625,0 0,66.6875 -9.65625,0 0,66.6562 9.65625,0 0,66.6875 -9.65625,0 0,66.6875 9.65625,0 0,66.6563 -9.65625,0 0,66.6875 9.59375,0 38.375,0 0,-9.625 47.968758,0 0,9.625 48,0 0,-9.625 48,0 0,9.625 38.375,0 9.65625,0 z"
         style="color:#000000;fill:#ffffff;fill-opacity:1;fill-rule:nonzero;stroke:#000000;stroke-width:0.99999994;stroke-linecap:butt;stroke-linejoin:miter;stroke-miterlimit:4;stroke-opacity:1;stroke-dasharray:none;stroke-dashoffset:0;marker:none;visibility:visible;display:inline;overflow:visible;enable-background:accumulate" />
      <path
         sodipodi:nodetypes="ccccccccccccccccccccccccccccc"
         inkscape:connector-curvature="0"
         id="path4264"
         d="m 476.35599,-2676.0311 0,-66.6562 9.625,0 0,-66.6875 -9.625,0 0,-66.6875 9.625,0 0,-66.6563 -9.625,0 0,-66.6875 9.625,0 0,-66.6563 -9.625,0 0,-66.625 -45,0 0,9.625 -54.6875,0 0,-9.625 -54.65625,0 0,9.625 -54.6875,0 0,447.4688 54.6875,0 0,9.625 54.65625,0 0,-9.625 54.6875,0 0,9.625 z"
         style="color:#000000;fill:#ffffff;fill-opacity:1;fill-rule:nonzero;stroke:#000000;stroke-width:1;stroke-linecap:butt;stroke-linejoin:miter;stroke-miterlimit:4;stroke-opacity:1;stroke-dasharray:none;stroke-dashoffset:0;marker:none;visibility:visible;display:inline;overflow:visible;enable-background:accumulate" />
      <path
         style="color:#000000;fill:#ffffff;fill-opacity:1;fill-rule:nonzero;stroke:#000000;stroke-width:1;stroke-linecap:butt;stroke-linejoin:miter;stroke-miterlimit:4;stroke-opacity:1;stroke-dasharray:none;stroke-dashoffset:0;marker:none;visibility:visible;display:inline;overflow:visible;enable-background:accumulate"
         d="m 502.17737,-3142.3715 0,66.6563 -9.625,0 0,66.6875 9.625,0 0,66.6875 -9.625,0 0,66.6562 9.625,0 0,66.6875 -9.625,0 0,66.6563 9.625,0 0,66.625 45,0 0,-9.625 54.68751,0 0,9.625 54.6562,0 0,-9.625 54.6875,0 0,-447.4688 -54.6875,0 0,-9.625 -54.6562,0 0,9.625 -54.68751,0 0,-9.625 z"
         id="path4266"
         inkscape:connector-curvature="0"
         sodipodi:nodetypes="ccccccccccccccccccccccccccccc" />
      <path
         style="color:#000000;fill:#ffffff;fill-opacity:1;fill-rule:nonzero;stroke:#000000;stroke-width:0.99999994;stroke-linecap:butt;stroke-linejoin:miter;stroke-miterlimit:4;stroke-opacity:1;stroke-dasharray:none;stroke-dashoffset:0;marker:none;visibility:visible;display:inline;overflow:visible;enable-background:accumulate"
         d="m 1654.7441,-2674.2001 0,-66.6875 -9.6562,0 0,-66.6563 9.6562,0 0,-66.6875 -9.6562,0 0,-66.6875 9.6562,0 0,-66.6562 -9.6562,0 0,-66.6875 9.6562,0 0,-66.6563 -9.6562,0 -38.375,0 0,9.625 -48,0 0,-9.625 -48,0 0,9.625 -47.9688,0 0,-9.625 -38.375,0 -9.5937,0 0,66.6563 9.6562,0 0,66.6875 -9.6562,0 0,66.6562 9.6562,0 0,66.6875 -9.6562,0 0,66.6875 9.6562,0 0,66.6563 -9.6562,0 0,66.6875 9.5937,0 38.375,0 0,-9.625 47.9688,0 0,9.625 48,0 0,-9.625 48,0 0,9.625 38.375,0 9.6562,0 z"
         id="path4268"
         inkscape:connector-curvature="0" />
      <path
         style="color:#000000;fill:#ffffff;fill-opacity:1;fill-rule:nonzero;stroke:#000000;stroke-width:1;stroke-linecap:butt;stroke-linejoin:miter;stroke-miterlimit:4;stroke-opacity:1;stroke-dasharray:none;stroke-dashoffset:0;marker:none;visibility:visible;display:inline;overflow:visible;enable-background:accumulate"
         d="m 1870.3469,-2676.0311 0,-66.6562 9.625,0 0,-66.6875 -9.625,0 0,-66.6875 9.625,0 0,-66.6563 -9.625,0 0,-66.6875 9.625,0 0,-66.6563 -9.625,0 0,-66.625 -45,0 0,9.625 -54.6875,0 0,-9.625 -54.6563,0 0,9.625 -54.6875,0 0,447.4688 54.6875,0 0,9.625 54.6563,0 0,-9.625 54.6875,0 0,9.625 z"
         id="path4270"
         inkscape:connector-curvature="0"
         sodipodi:nodetypes="ccccccccccccccccccccccccccccc" />
      <path
         sodipodi:nodetypes="ccccccccccccccccccccccccccccc"
         inkscape:connector-curvature="0"
         id="path4272"
         d="m 1896.1683,-3142.3715 0,66.6563 -9.625,0 0,66.6875 9.625,0 0,66.6875 -9.625,0 0,66.6562 9.625,0 0,66.6875 -9.625,0 0,66.6563 9.625,0 0,66.625 45,0 0,-9.625 54.6875,0 0,9.625 54.6562,0 0,-9.625 54.6875,0 0,-447.4688 -54.6875,0 0,-9.625 -54.6562,0 0,9.625 -54.6875,0 0,-9.625 z"
         style="color:#000000;fill:#ffffff;fill-opacity:1;fill-rule:nonzero;stroke:#000000;stroke-width:1;stroke-linecap:butt;stroke-linejoin:miter;stroke-miterlimit:4;stroke-opacity:1;stroke-dasharray:none;stroke-dashoffset:0;marker:none;visibility:visible;display:inline;overflow:visible;enable-background:accumulate" />
    </g>
    <g
       id="g4274"
       transform="translate(0,2924.8349)">
      <path
         inkscape:connector-curvature="0"
         id="path4276"
         d="m 957.74872,-2674.2001 0,-66.6875 -9.65625,0 0,-66.6563 9.65625,0 0,-66.6875 -9.65625,0 0,-66.6875 9.65625,0 0,-66.6562 -9.65625,0 0,-66.6875 9.65625,0 0,-66.6563 -9.65625,0 -38.375,0 0,9.625 -48,0 0,-9.625 -48,0 0,9.625 -47.96875,0 0,-9.625 -38.375,0 -9.59375,0 0,66.6563 9.65625,0 0,66.6875 -9.65625,0 0,66.6562 9.65625,0 0,66.6875 -9.65625,0 0,66.6875 9.65625,0 0,66.6563 -9.65625,0 0,66.6875 9.59375,0 38.375,0 0,-9.625 47.96875,0 0,9.625 48,0 0,-9.625 48,0 0,9.625 38.375,0 9.65625,0 z"
         style="color:#000000;fill:#ffffff;fill-opacity:1;fill-rule:nonzero;stroke:#000000;stroke-width:0.99999994;stroke-linecap:butt;stroke-linejoin:miter;stroke-miterlimit:4;stroke-opacity:1;stroke-dasharray:none;stroke-dashoffset:0;marker:none;visibility:visible;display:inline;overflow:visible;enable-background:accumulate" />
      <path
         sodipodi:nodetypes="ccccccccccccccccccccccccccccc"
         inkscape:connector-curvature="0"
         id="path4278"
         d="m 1173.3514,-2676.0311 0,-66.6562 9.625,0 0,-66.6875 -9.625,0 0,-66.6875 9.625,0 0,-66.6563 -9.625,0 0,-66.6875 9.625,0 0,-66.6563 -9.625,0 0,-66.625 -45,0 0,9.625 -54.6875,0 0,-9.625 -54.6563,0 0,9.625 -54.68746,0 0,447.4688 54.68746,0 0,9.625 54.6563,0 0,-9.625 54.6875,0 0,9.625 z"
         style="color:#000000;fill:#ffffff;fill-opacity:1;fill-rule:nonzero;stroke:#000000;stroke-width:1;stroke-linecap:butt;stroke-linejoin:miter;stroke-miterlimit:4;stroke-opacity:1;stroke-dasharray:none;stroke-dashoffset:0;marker:none;visibility:visible;display:inline;overflow:visible;enable-background:accumulate" />
      <path
         style="color:#000000;fill:#ffffff;fill-opacity:1;fill-rule:nonzero;stroke:#000000;stroke-width:1;stroke-linecap:butt;stroke-linejoin:miter;stroke-miterlimit:4;stroke-opacity:1;stroke-dasharray:none;stroke-dashoffset:0;marker:none;visibility:visible;display:inline;overflow:visible;enable-background:accumulate"
         d="m 1199.1728,-3142.3715 0,66.6563 -9.625,0 0,66.6875 9.625,0 0,66.6875 -9.625,0 0,66.6562 9.625,0 0,66.6875 -9.625,0 0,66.6563 9.625,0 0,66.625 45,0 0,-9.625 54.6876,0 0,9.625 54.6562,0 0,-9.625 54.6875,0 0,-447.4688 -54.6875,0 0,-9.625 -54.6562,0 0,9.625 -54.6876,0 0,-9.625 z"
         id="path4280"
         inkscape:connector-curvature="0"
         sodipodi:nodetypes="ccccccccccccccccccccccccccccc" />
      <path
         style="color:#000000;fill:#ffffff;fill-opacity:1;fill-rule:nonzero;stroke:#000000;stroke-width:0.99999994;stroke-linecap:butt;stroke-linejoin:miter;stroke-miterlimit:4;stroke-opacity:1;stroke-dasharray:none;stroke-dashoffset:0;marker:none;visibility:visible;display:inline;overflow:visible;enable-background:accumulate"
         d="m 260.75337,-2674.2001 0,-66.6875 -9.65625,0 0,-66.6563 9.65625,0 0,-66.6875 -9.65625,0 0,-66.6875 9.65625,0 0,-66.6562 -9.65625,0 0,-66.6875 9.65625,0 0,-66.6563 -9.65625,0 -38.375,0 0,9.625 -48,0 0,-9.625 -48,0 0,9.625 -47.968758,0 0,-9.625 -38.375,0 -9.59375,0 0,66.6563 9.65625,0 0,66.6875 -9.65625,0 0,66.6562 9.65625,0 0,66.6875 -9.65625,0 0,66.6875 9.65625,0 0,66.6563 -9.65625,0 0,66.6875 9.59375,0 38.375,0 0,-9.625 47.968758,0 0,9.625 48,0 0,-9.625 48,0 0,9.625 38.375,0 9.65625,0 z"
         id="path4282"
         inkscape:connector-curvature="0" />
      <path
         style="color:#000000;fill:#ffffff;fill-opacity:1;fill-rule:nonzero;stroke:#000000;stroke-width:1;stroke-linecap:butt;stroke-linejoin:miter;stroke-miterlimit:4;stroke-opacity:1;stroke-dasharray:none;stroke-dashoffset:0;marker:none;visibility:visible;display:inline;overflow:visible;enable-background:accumulate"
         d="m 476.35599,-2676.0311 0,-66.6562 9.625,0 0,-66.6875 -9.625,0 0,-66.6875 9.625,0 0,-66.6563 -9.625,0 0,-66.6875 9.625,0 0,-66.6563 -9.625,0 0,-66.625 -45,0 0,9.625 -54.6875,0 0,-9.625 -54.65625,0 0,9.625 -54.6875,0 0,447.4688 54.6875,0 0,9.625 54.65625,0 0,-9.625 54.6875,0 0,9.625 z"
         id="path4284"
         inkscape:connector-curvature="0"
         sodipodi:nodetypes="ccccccccccccccccccccccccccccc" />
      <path
         sodipodi:nodetypes="ccccccccccccccccccccccccccccc"
         inkscape:connector-curvature="0"
         id="path4286"
         d="m 502.17737,-3142.3715 0,66.6563 -9.625,0 0,66.6875 9.625,0 0,66.6875 -9.625,0 0,66.6562 9.625,0 0,66.6875 -9.625,0 0,66.6563 9.625,0 0,66.625 45,0 0,-9.625 54.68751,0 0,9.625 54.6562,0 0,-9.625 54.6875,0 0,-447.4688 -54.6875,0 0,-9.625 -54.6562,0 0,9.625 -54.68751,0 0,-9.625 z"
         style="color:#000000;fill:#ffffff;fill-opacity:1;fill-rule:nonzero;stroke:#000000;stroke-width:1;stroke-linecap:butt;stroke-linejoin:miter;stroke-miterlimit:4;stroke-opacity:1;stroke-dasharray:none;stroke-dashoffset:0;marker:none;visibility:visible;display:inline;overflow:visible;enable-background:accumulate" />
      <path
         inkscape:connector-curvature="0"
         id="path4288"
         d="m 1654.7441,-2674.2001 0,-66.6875 -9.6562,0 0,-66.6563 9.6562,0 0,-66.6875 -9.6562,0 0,-66.6875 9.6562,0 0,-66.6562 -9.6562,0 0,-66.6875 9.6562,0 0,-66.6563 -9.6562,0 -38.375,0 0,9.625 -48,0 0,-9.625 -48,0 0,9.625 -47.9688,0 0,-9.625 -38.375,0 -9.5937,0 0,66.6563 9.6562,0 0,66.6875 -9.6562,0 0,66.6562 9.6562,0 0,66.6875 -9.6562,0 0,66.6875 9.6562,0 0,66.6563 -9.6562,0 0,66.6875 9.5937,0 38.375,0 0,-9.625 47.9688,0 0,9.625 48,0 0,-9.625 48,0 0,9.625 38.375,0 9.6562,0 z"
         style="color:#000000;fill:#ffffff;fill-opacity:1;fill-rule:nonzero;stroke:#000000;stroke-width:0.99999994;stroke-linecap:butt;stroke-linejoin:miter;stroke-miterlimit:4;stroke-opacity:1;stroke-dasharray:none;stroke-dashoffset:0;marker:none;visibility:visible;display:inline;overflow:visible;enable-background:accumulate" />
      <path
         sodipodi:nodetypes="ccccccccccccccccccccccccccccc"
         inkscape:connector-curvature="0"
         id="path4290"
         d="m 1870.3469,-2676.0311 0,-66.6562 9.625,0 0,-66.6875 -9.625,0 0,-66.6875 9.625,0 0,-66.6563 -9.625,0 0,-66.6875 9.625,0 0,-66.6563 -9.625,0 0,-66.625 -45,0 0,9.625 -54.6875,0 0,-9.625 -54.6563,0 0,9.625 -54.6875,0 0,447.4688 54.6875,0 0,9.625 54.6563,0 0,-9.625 54.6875,0 0,9.625 z"
         style="color:#000000;fill:#ffffff;fill-opacity:1;fill-rule:nonzero;stroke:#000000;stroke-width:1;stroke-linecap:butt;stroke-linejoin:miter;stroke-miterlimit:4;stroke-opacity:1;stroke-dasharray:none;stroke-dashoffset:0;marker:none;visibility:visible;display:inline;overflow:visible;enable-background:accumulate" />
      <path
         style="color:#000000;fill:#ffffff;fill-opacity:1;fill-rule:nonzero;stroke:#000000;stroke-width:1;stroke-linecap:butt;stroke-linejoin:miter;stroke-miterlimit:4;stroke-opacity:1;stroke-dasharray:none;stroke-dashoffset:0;marker:none;visibility:visible;display:inline;overflow:visible;enable-background:accumulate"
         d="m 1896.1683,-3142.3715 0,66.6563 -9.625,0 0,66.6875 9.625,0 0,66.6875 -9.625,0 0,66.6562 9.625,0 0,66.6875 -9.625,0 0,66.6563 9.625,0 0,66.625 45,0 0,-9.625 54.6875,0 0,9.625 54.6562,0 0,-9.625 54.6875,0 0,-447.4688 -54.6875,0 0,-9.625 -54.6562,0 0,9.625 -54.6875,0 0,-9.625 z"
         id="path4292"
         inkscape:connector-curvature="0"
         sodipodi:nodetypes="ccccccccccccccccccccccccccccc" />
    </g>
    <g
       id="g4294"
       transform="translate(0,2437.5482)">
      <path
         style="color:#000000;fill:#ffffff;fill-opacity:1;fill-rule:nonzero;stroke:#000000;stroke-width:0.99999994;stroke-linecap:butt;stroke-linejoin:miter;stroke-miterlimit:4;stroke-opacity:1;stroke-dasharray:none;stroke-dashoffset:0;marker:none;visibility:visible;display:inline;overflow:visible;enable-background:accumulate"
         d="m 957.74872,-2674.2001 0,-66.6875 -9.65625,0 0,-66.6563 9.65625,0 0,-66.6875 -9.65625,0 0,-66.6875 9.65625,0 0,-66.6562 -9.65625,0 0,-66.6875 9.65625,0 0,-66.6563 -9.65625,0 -38.375,0 0,9.625 -48,0 0,-9.625 -48,0 0,9.625 -47.96875,0 0,-9.625 -38.375,0 -9.59375,0 0,66.6563 9.65625,0 0,66.6875 -9.65625,0 0,66.6562 9.65625,0 0,66.6875 -9.65625,0 0,66.6875 9.65625,0 0,66.6563 -9.65625,0 0,66.6875 9.59375,0 38.375,0 0,-9.625 47.96875,0 0,9.625 48,0 0,-9.625 48,0 0,9.625 38.375,0 9.65625,0 z"
         id="path4296"
         inkscape:connector-curvature="0" />
      <path
         style="color:#000000;fill:#ffffff;fill-opacity:1;fill-rule:nonzero;stroke:#000000;stroke-width:1;stroke-linecap:butt;stroke-linejoin:miter;stroke-miterlimit:4;stroke-opacity:1;stroke-dasharray:none;stroke-dashoffset:0;marker:none;visibility:visible;display:inline;overflow:visible;enable-background:accumulate"
         d="m 1173.3514,-2676.0311 0,-66.6562 9.625,0 0,-66.6875 -9.625,0 0,-66.6875 9.625,0 0,-66.6563 -9.625,0 0,-66.6875 9.625,0 0,-66.6563 -9.625,0 0,-66.625 -45,0 0,9.625 -54.6875,0 0,-9.625 -54.6563,0 0,9.625 -54.68746,0 0,447.4688 54.68746,0 0,9.625 54.6563,0 0,-9.625 54.6875,0 0,9.625 z"
         id="path4298"
         inkscape:connector-curvature="0"
         sodipodi:nodetypes="ccccccccccccccccccccccccccccc" />
      <path
         sodipodi:nodetypes="ccccccccccccccccccccccccccccc"
         inkscape:connector-curvature="0"
         id="path4300"
         d="m 1199.1728,-3142.3715 0,66.6563 -9.625,0 0,66.6875 9.625,0 0,66.6875 -9.625,0 0,66.6562 9.625,0 0,66.6875 -9.625,0 0,66.6563 9.625,0 0,66.625 45,0 0,-9.625 54.6876,0 0,9.625 54.6562,0 0,-9.625 54.6875,0 0,-447.4688 -54.6875,0 0,-9.625 -54.6562,0 0,9.625 -54.6876,0 0,-9.625 z"
         style="color:#000000;fill:#ffffff;fill-opacity:1;fill-rule:nonzero;stroke:#000000;stroke-width:1;stroke-linecap:butt;stroke-linejoin:miter;stroke-miterlimit:4;stroke-opacity:1;stroke-dasharray:none;stroke-dashoffset:0;marker:none;visibility:visible;display:inline;overflow:visible;enable-background:accumulate" />
      <path
         inkscape:connector-curvature="0"
         id="path4302"
         d="m 260.75337,-2674.2001 0,-66.6875 -9.65625,0 0,-66.6563 9.65625,0 0,-66.6875 -9.65625,0 0,-66.6875 9.65625,0 0,-66.6562 -9.65625,0 0,-66.6875 9.65625,0 0,-66.6563 -9.65625,0 -38.375,0 0,9.625 -48,0 0,-9.625 -48,0 0,9.625 -47.968758,0 0,-9.625 -38.375,0 -9.59375,0 0,66.6563 9.65625,0 0,66.6875 -9.65625,0 0,66.6562 9.65625,0 0,66.6875 -9.65625,0 0,66.6875 9.65625,0 0,66.6563 -9.65625,0 0,66.6875 9.59375,0 38.375,0 0,-9.625 47.968758,0 0,9.625 48,0 0,-9.625 48,0 0,9.625 38.375,0 9.65625,0 z"
         style="color:#000000;fill:#ffffff;fill-opacity:1;fill-rule:nonzero;stroke:#000000;stroke-width:0.99999994;stroke-linecap:butt;stroke-linejoin:miter;stroke-miterlimit:4;stroke-opacity:1;stroke-dasharray:none;stroke-dashoffset:0;marker:none;visibility:visible;display:inline;overflow:visible;enable-background:accumulate" />
      <path
         sodipodi:nodetypes="ccccccccccccccccccccccccccccc"
         inkscape:connector-curvature="0"
         id="path4304"
         d="m 476.35599,-2676.0311 0,-66.6562 9.625,0 0,-66.6875 -9.625,0 0,-66.6875 9.625,0 0,-66.6563 -9.625,0 0,-66.6875 9.625,0 0,-66.6563 -9.625,0 0,-66.625 -45,0 0,9.625 -54.6875,0 0,-9.625 -54.65625,0 0,9.625 -54.6875,0 0,447.4688 54.6875,0 0,9.625 54.65625,0 0,-9.625 54.6875,0 0,9.625 z"
         style="color:#000000;fill:#ffffff;fill-opacity:1;fill-rule:nonzero;stroke:#000000;stroke-width:1;stroke-linecap:butt;stroke-linejoin:miter;stroke-miterlimit:4;stroke-opacity:1;stroke-dasharray:none;stroke-dashoffset:0;marker:none;visibility:visible;display:inline;overflow:visible;enable-background:accumulate" />
      <path
         style="color:#000000;fill:#ffffff;fill-opacity:1;fill-rule:nonzero;stroke:#000000;stroke-width:1;stroke-linecap:butt;stroke-linejoin:miter;stroke-miterlimit:4;stroke-opacity:1;stroke-dasharray:none;stroke-dashoffset:0;marker:none;visibility:visible;display:inline;overflow:visible;enable-background:accumulate"
         d="m 502.17737,-3142.3715 0,66.6563 -9.625,0 0,66.6875 9.625,0 0,66.6875 -9.625,0 0,66.6562 9.625,0 0,66.6875 -9.625,0 0,66.6563 9.625,0 0,66.625 45,0 0,-9.625 54.68751,0 0,9.625 54.6562,0 0,-9.625 54.6875,0 0,-447.4688 -54.6875,0 0,-9.625 -54.6562,0 0,9.625 -54.68751,0 0,-9.625 z"
         id="path4306"
         inkscape:connector-curvature="0"
         sodipodi:nodetypes="ccccccccccccccccccccccccccccc" />
      <path
         style="color:#000000;fill:#ffffff;fill-opacity:1;fill-rule:nonzero;stroke:#000000;stroke-width:0.99999994;stroke-linecap:butt;stroke-linejoin:miter;stroke-miterlimit:4;stroke-opacity:1;stroke-dasharray:none;stroke-dashoffset:0;marker:none;visibility:visible;display:inline;overflow:visible;enable-background:accumulate"
         d="m 1654.7441,-2674.2001 0,-66.6875 -9.6562,0 0,-66.6563 9.6562,0 0,-66.6875 -9.6562,0 0,-66.6875 9.6562,0 0,-66.6562 -9.6562,0 0,-66.6875 9.6562,0 0,-66.6563 -9.6562,0 -38.375,0 0,9.625 -48,0 0,-9.625 -48,0 0,9.625 -47.9688,0 0,-9.625 -38.375,0 -9.5937,0 0,66.6563 9.6562,0 0,66.6875 -9.6562,0 0,66.6562 9.6562,0 0,66.6875 -9.6562,0 0,66.6875 9.6562,0 0,66.6563 -9.6562,0 0,66.6875 9.5937,0 38.375,0 0,-9.625 47.9688,0 0,9.625 48,0 0,-9.625 48,0 0,9.625 38.375,0 9.6562,0 z"
         id="path4308"
         inkscape:connector-curvature="0" />
      <path
         style="color:#000000;fill:#ffffff;fill-opacity:1;fill-rule:nonzero;stroke:#000000;stroke-width:1;stroke-linecap:butt;stroke-linejoin:miter;stroke-miterlimit:4;stroke-opacity:1;stroke-dasharray:none;stroke-dashoffset:0;marker:none;visibility:visible;display:inline;overflow:visible;enable-background:accumulate"
         d="m 1870.3469,-2676.0311 0,-66.6562 9.625,0 0,-66.6875 -9.625,0 0,-66.6875 9.625,0 0,-66.6563 -9.625,0 0,-66.6875 9.625,0 0,-66.6563 -9.625,0 0,-66.625 -45,0 0,9.625 -54.6875,0 0,-9.625 -54.6563,0 0,9.625 -54.6875,0 0,447.4688 54.6875,0 0,9.625 54.6563,0 0,-9.625 54.6875,0 0,9.625 z"
         id="path4310"
         inkscape:connector-curvature="0"
         sodipodi:nodetypes="ccccccccccccccccccccccccccccc" />
      <path
         sodipodi:nodetypes="ccccccccccccccccccccccccccccc"
         inkscape:connector-curvature="0"
         id="path4312"
         d="m 1896.1683,-3142.3715 0,66.6563 -9.625,0 0,66.6875 9.625,0 0,66.6875 -9.625,0 0,66.6562 9.625,0 0,66.6875 -9.625,0 0,66.6563 9.625,0 0,66.625 45,0 0,-9.625 54.6875,0 0,9.625 54.6562,0 0,-9.625 54.6875,0 0,-447.4688 -54.6875,0 0,-9.625 -54.6562,0 0,9.625 -54.6875,0 0,-9.625 z"
         style="color:#000000;fill:#ffffff;fill-opacity:1;fill-rule:nonzero;stroke:#000000;stroke-width:1;stroke-linecap:butt;stroke-linejoin:miter;stroke-miterlimit:4;stroke-opacity:1;stroke-dasharray:none;stroke-dashoffset:0;marker:none;visibility:visible;display:inline;overflow:visible;enable-background:accumulate" />
    </g>
    <g
       id="g4314"
       transform="translate(0,1462.975)">
      <path
         inkscape:connector-curvature="0"
         id="path4316"
         d="m 957.74872,-2674.2001 0,-66.6875 -9.65625,0 0,-66.6563 9.65625,0 0,-66.6875 -9.65625,0 0,-66.6875 9.65625,0 0,-66.6562 -9.65625,0 0,-66.6875 9.65625,0 0,-66.6563 -9.65625,0 -38.375,0 0,9.625 -48,0 0,-9.625 -48,0 0,9.625 -47.96875,0 0,-9.625 -38.375,0 -9.59375,0 0,66.6563 9.65625,0 0,66.6875 -9.65625,0 0,66.6562 9.65625,0 0,66.6875 -9.65625,0 0,66.6875 9.65625,0 0,66.6563 -9.65625,0 0,66.6875 9.59375,0 38.375,0 0,-9.625 47.96875,0 0,9.625 48,0 0,-9.625 48,0 0,9.625 38.375,0 9.65625,0 z"
         style="color:#000000;fill:#ffffff;fill-opacity:1;fill-rule:nonzero;stroke:#000000;stroke-width:0.99999994;stroke-linecap:butt;stroke-linejoin:miter;stroke-miterlimit:4;stroke-opacity:1;stroke-dasharray:none;stroke-dashoffset:0;marker:none;visibility:visible;display:inline;overflow:visible;enable-background:accumulate" />
      <path
         sodipodi:nodetypes="ccccccccccccccccccccccccccccc"
         inkscape:connector-curvature="0"
         id="path4318"
         d="m 1173.3514,-2676.0311 0,-66.6562 9.625,0 0,-66.6875 -9.625,0 0,-66.6875 9.625,0 0,-66.6563 -9.625,0 0,-66.6875 9.625,0 0,-66.6563 -9.625,0 0,-66.625 -45,0 0,9.625 -54.6875,0 0,-9.625 -54.6563,0 0,9.625 -54.68746,0 0,447.4688 54.68746,0 0,9.625 54.6563,0 0,-9.625 54.6875,0 0,9.625 z"
         style="color:#000000;fill:#ffffff;fill-opacity:1;fill-rule:nonzero;stroke:#000000;stroke-width:1;stroke-linecap:butt;stroke-linejoin:miter;stroke-miterlimit:4;stroke-opacity:1;stroke-dasharray:none;stroke-dashoffset:0;marker:none;visibility:visible;display:inline;overflow:visible;enable-background:accumulate" />
      <path
         style="color:#000000;fill:#ffffff;fill-opacity:1;fill-rule:nonzero;stroke:#000000;stroke-width:1;stroke-linecap:butt;stroke-linejoin:miter;stroke-miterlimit:4;stroke-opacity:1;stroke-dasharray:none;stroke-dashoffset:0;marker:none;visibility:visible;display:inline;overflow:visible;enable-background:accumulate"
         d="m 1199.1728,-3142.3715 0,66.6563 -9.625,0 0,66.6875 9.625,0 0,66.6875 -9.625,0 0,66.6562 9.625,0 0,66.6875 -9.625,0 0,66.6563 9.625,0 0,66.625 45,0 0,-9.625 54.6876,0 0,9.625 54.6562,0 0,-9.625 54.6875,0 0,-447.4688 -54.6875,0 0,-9.625 -54.6562,0 0,9.625 -54.6876,0 0,-9.625 z"
         id="path4320"
         inkscape:connector-curvature="0"
         sodipodi:nodetypes="ccccccccccccccccccccccccccccc" />
      <path
         style="color:#000000;fill:#ffffff;fill-opacity:1;fill-rule:nonzero;stroke:#000000;stroke-width:0.99999994;stroke-linecap:butt;stroke-linejoin:miter;stroke-miterlimit:4;stroke-opacity:1;stroke-dasharray:none;stroke-dashoffset:0;marker:none;visibility:visible;display:inline;overflow:visible;enable-background:accumulate"
         d="m 260.75337,-2674.2001 0,-66.6875 -9.65625,0 0,-66.6563 9.65625,0 0,-66.6875 -9.65625,0 0,-66.6875 9.65625,0 0,-66.6562 -9.65625,0 0,-66.6875 9.65625,0 0,-66.6563 -9.65625,0 -38.375,0 0,9.625 -48,0 0,-9.625 -48,0 0,9.625 -47.968758,0 0,-9.625 -38.375,0 -9.59375,0 0,66.6563 9.65625,0 0,66.6875 -9.65625,0 0,66.6562 9.65625,0 0,66.6875 -9.65625,0 0,66.6875 9.65625,0 0,66.6563 -9.65625,0 0,66.6875 9.59375,0 38.375,0 0,-9.625 47.968758,0 0,9.625 48,0 0,-9.625 48,0 0,9.625 38.375,0 9.65625,0 z"
         id="path4322"
         inkscape:connector-curvature="0" />
      <path
         style="color:#000000;fill:#ffffff;fill-opacity:1;fill-rule:nonzero;stroke:#000000;stroke-width:1;stroke-linecap:butt;stroke-linejoin:miter;stroke-miterlimit:4;stroke-opacity:1;stroke-dasharray:none;stroke-dashoffset:0;marker:none;visibility:visible;display:inline;overflow:visible;enable-background:accumulate"
         d="m 476.35599,-2676.0311 0,-66.6562 9.625,0 0,-66.6875 -9.625,0 0,-66.6875 9.625,0 0,-66.6563 -9.625,0 0,-66.6875 9.625,0 0,-66.6563 -9.625,0 0,-66.625 -45,0 0,9.625 -54.6875,0 0,-9.625 -54.65625,0 0,9.625 -54.6875,0 0,447.4688 54.6875,0 0,9.625 54.65625,0 0,-9.625 54.6875,0 0,9.625 z"
         id="path4324"
         inkscape:connector-curvature="0"
         sodipodi:nodetypes="ccccccccccccccccccccccccccccc" />
      <path
         sodipodi:nodetypes="ccccccccccccccccccccccccccccc"
         inkscape:connector-curvature="0"
         id="path4326"
         d="m 502.17737,-3142.3715 0,66.6563 -9.625,0 0,66.6875 9.625,0 0,66.6875 -9.625,0 0,66.6562 9.625,0 0,66.6875 -9.625,0 0,66.6563 9.625,0 0,66.625 45,0 0,-9.625 54.68751,0 0,9.625 54.6562,0 0,-9.625 54.6875,0 0,-447.4688 -54.6875,0 0,-9.625 -54.6562,0 0,9.625 -54.68751,0 0,-9.625 z"
         style="color:#000000;fill:#ffffff;fill-opacity:1;fill-rule:nonzero;stroke:#000000;stroke-width:1;stroke-linecap:butt;stroke-linejoin:miter;stroke-miterlimit:4;stroke-opacity:1;stroke-dasharray:none;stroke-dashoffset:0;marker:none;visibility:visible;display:inline;overflow:visible;enable-background:accumulate" />
      <path
         inkscape:connector-curvature="0"
         id="path4328"
         d="m 1654.7441,-2674.2001 0,-66.6875 -9.6562,0 0,-66.6563 9.6562,0 0,-66.6875 -9.6562,0 0,-66.6875 9.6562,0 0,-66.6562 -9.6562,0 0,-66.6875 9.6562,0 0,-66.6563 -9.6562,0 -38.375,0 0,9.625 -48,0 0,-9.625 -48,0 0,9.625 -47.9688,0 0,-9.625 -38.375,0 -9.5937,0 0,66.6563 9.6562,0 0,66.6875 -9.6562,0 0,66.6562 9.6562,0 0,66.6875 -9.6562,0 0,66.6875 9.6562,0 0,66.6563 -9.6562,0 0,66.6875 9.5937,0 38.375,0 0,-9.625 47.9688,0 0,9.625 48,0 0,-9.625 48,0 0,9.625 38.375,0 9.6562,0 z"
         style="color:#000000;fill:#ffffff;fill-opacity:1;fill-rule:nonzero;stroke:#000000;stroke-width:0.99999994;stroke-linecap:butt;stroke-linejoin:miter;stroke-miterlimit:4;stroke-opacity:1;stroke-dasharray:none;stroke-dashoffset:0;marker:none;visibility:visible;display:inline;overflow:visible;enable-background:accumulate" />
      <path
         sodipodi:nodetypes="ccccccccccccccccccccccccccccc"
         inkscape:connector-curvature="0"
         id="path4330"
         d="m 1870.3469,-2676.0311 0,-66.6562 9.625,0 0,-66.6875 -9.625,0 0,-66.6875 9.625,0 0,-66.6563 -9.625,0 0,-66.6875 9.625,0 0,-66.6563 -9.625,0 0,-66.625 -45,0 0,9.625 -54.6875,0 0,-9.625 -54.6563,0 0,9.625 -54.6875,0 0,447.4688 54.6875,0 0,9.625 54.6563,0 0,-9.625 54.6875,0 0,9.625 z"
         style="color:#000000;fill:#ffffff;fill-opacity:1;fill-rule:nonzero;stroke:#000000;stroke-width:1;stroke-linecap:butt;stroke-linejoin:miter;stroke-miterlimit:4;stroke-opacity:1;stroke-dasharray:none;stroke-dashoffset:0;marker:none;visibility:visible;display:inline;overflow:visible;enable-background:accumulate" />
      <path
         style="color:#000000;fill:#ffffff;fill-opacity:1;fill-rule:nonzero;stroke:#000000;stroke-width:1;stroke-linecap:butt;stroke-linejoin:miter;stroke-miterlimit:4;stroke-opacity:1;stroke-dasharray:none;stroke-dashoffset:0;marker:none;visibility:visible;display:inline;overflow:visible;enable-background:accumulate"
         d="m 1896.1683,-3142.3715 0,66.6563 -9.625,0 0,66.6875 9.625,0 0,66.6875 -9.625,0 0,66.6562 9.625,0 0,66.6875 -9.625,0 0,66.6563 9.625,0 0,66.625 45,0 0,-9.625 54.6875,0 0,9.625 54.6562,0 0,-9.625 54.6875,0 0,-447.4688 -54.6875,0 0,-9.625 -54.6562,0 0,9.625 -54.6875,0 0,-9.625 z"
         id="path4332"
         inkscape:connector-curvature="0"
         sodipodi:nodetypes="ccccccccccccccccccccccccccccc" />
    </g>
  </g>
</svg>
